<?xml version="1.0" encoding="UTF-8"?>
<svg width="100px" height="100px" viewBox="0 0 100 100" version="1.1" xmlns="http://www.w3.org/2000/svg" xmlns:xlink="http://www.w3.org/1999/xlink">
    <!-- Generator: Sketch 49.3 (51167) - http://www.bohemiancoding.com/sketch -->
    <title>icon</title>
    <desc>Created with Sketch.</desc>
    <defs>
        <circle id="path-1" cx="50" cy="50" r="50"></circle>
    </defs>
    <g id="icon" stroke="none" stroke-width="1" fill="none" fill-rule="evenodd">
        <mask id="mask-2" fill="white">
            <use xlink:href="#path-1"></use>
        </mask>
        <use id="Oval" fill="#000000" xlink:href="#path-1"></use>
        <g id="Group" mask="url(#mask-2)" fill="#FFFFFF" fill-rule="nonzero">
            <g transform="translate(13.000000, 6.000000)" id="Shape">
                <path d="M12.2988586,18.9116649 C13.0960571,18.3212703 7.82377445,15.8842764 8.6619101,14.7853667 C8.88383291,14.4966336 9.04650448,14.7131834 9.19193933,14.7864441 C9.85016669,15.1171944 10.5127032,15.4274747 11.2377229,15.5912338 C11.6406313,15.6828096 12.044617,15.7000474 12.44968,15.6591077 C12.7340859,15.6300189 13.0669701,15.6063169 13.1865499,15.2938818 C13.2985886,15.0019166 13.0788204,14.7724384 12.8902937,14.5828226 C12.5078539,14.1992816 12.1060228,13.8362104 11.705269,13.4709846 C11.3906988,13.1833288 11.0599692,12.9139882 10.7518628,12.6209456 C10.5256308,12.4065505 10.3963553,12.1264362 10.5730318,11.8377031 C10.7507855,11.5478926 11.0653557,11.5532794 11.3583799,11.6319269 C11.8959502,11.7752161 12.3344094,12.0951927 12.7340859,12.4690375 C13.0314194,12.746997 13.4257094,12.5519944 13.7273521,12.8245671 C13.9266517,13.0044866 14.2659997,13.4311221 14.5504056,13.2662857 C14.8175748,13.1122229 14.5784153,13.0863662 14.5504056,12.8181029 C14.4685311,12.0402472 14.1518064,11.3679731 13.5797626,10.8260598 C13.3546079,10.612742 13.1143711,10.4155847 12.8989121,10.193648 C12.7297767,10.0191153 12.4809215,9.82734477 12.646825,9.55153999 C12.7911825,9.31128816 13.059429,9.40932814 13.285661,9.45457737 C14.0860914,9.61510437 14.8315796,9.95016409 15.6072322,10.1882612 C15.9939811,10.3067711 16.4658364,10.6623007 16.7922569,10.2895333 C17.1003633,9.93723574 16.7685564,9.47720198 16.5961891,9.10443457 C16.2816189,8.42030942 15.9185705,7.75773152 15.5749133,7.08653472 C15.3993142,6.74177874 15.2183286,6.40025484 15.0513478,6.05118941 C14.9587005,5.8594189 14.8638985,5.64502377 15.0287246,5.45109853 C15.1946281,5.25717329 15.4143963,5.32827921 15.6233916,5.38430206 C16.2309861,5.54806115 16.7674791,5.85403208 17.2694986,6.22141268 C17.8167646,6.62111414 18.3521803,7.03697605 18.8994462,7.43560015 C19.2624947,7.69955395 19.6567848,7.91394907 20.1124806,7.96027566 C20.8094906,8.03138158 21.1412975,7.6349122 20.9484617,6.9637154 C20.8353457,6.57047811 20.6263504,6.21925795 20.4108914,5.87342461 C20.1243309,5.41339085 19.8345385,4.95443444 19.6470891,4.44160992 C19.573833,4.24122051 19.5113499,4.01605176 19.679408,3.83828695 C19.8528525,3.65405798 20.0780072,3.72731862 20.2794614,3.79950191 C21.0497274,4.07530669 21.738119,4.50948376 22.4308199,4.93504192 C22.5859504,5.03092718 22.7464673,5.11711617 23.0244095,5.27548845 C22.6829069,4.73034306 22.4103512,4.31771324 22.1625733,3.89107771 C22.0246796,3.65405798 21.9137182,3.37394374 22.077467,3.12076357 C22.2573753,2.84388142 22.5600953,2.93868932 22.8240326,2.98286118 C23.4984194,3.09490687 24.1124776,3.38794945 24.741618,3.63682018 C25.6810194,4.00851022 25.9417249,3.92339859 26.4081937,3.01733677 C26.635503,2.57561817 26.511614,1.95613477 26.9953195,1.63615812 C27.8194504,1.51872562 27.3238946,1.8893383 27.4510154,2.03909168 C27.9099432,2.57561817 28.4054989,3.06043127 29.0981997,3.27913585 C29.8318378,3.51076877 30.2358235,3.15092972 30.0979297,2.38707974 C29.9988185,1.8376249 29.7359585,1.40883465 29.164992,1.24076611 C29.0141707,1.19659425 28.8762769,1.14703557 28.789016,0.997282194 C28.8288759,0.934795173 28.84719,0.869076064 28.8892045,0.84537409 C29.8652339,0.28083617 31.792515,0.810898492 32.3279307,1.80961348 C32.6748198,2.45495358 33.1617572,2.91821943 33.8587672,3.14985235 C34.0979267,3.22957717 34.3597094,3.31361145 34.569782,3.10891258 C34.7841637,2.90098163 34.6150284,2.66827134 34.5396177,2.46141775 C34.2886079,1.77621524 33.9977382,1.10501844 33.7768927,0.194647175 C34.2185838,-0.373122832 36.0068938,0.38210824 36.6963627,1.41637618 C36.7071356,1.43253662 36.7189859,1.4476197 36.7319134,1.46270277 C37.0788025,1.84516644 37.2931842,2.60578432 37.7251796,2.58746916 C38.146402,2.57346345 37.573281,1.42284036 38.4049528,1.0802391 C39.2355474,0.738715208 39.4434654,1.91950444 39.6632336,1.75359063 C39.6944752,1.72988866 39.7214076,1.70187723 39.7537264,1.68032998 C40.1437073,1.40560256 40.5961712,1.19767161 40.8838091,0.857225077 C41.6443795,-0.0423725624 42.6398002,-0.0132837764 42.3898677,0.578188204 C41.2091522,3.3750211 43.4143754,5.06971223 45.0378593,2.1446732 C45.1455888,1.94967059 45.4698547,1.97121784 45.7467195,2.08972771 C45.6669997,2.55622565 45.5818934,3.02380095 45.5097146,3.49353097 C45.4590817,3.82212652 45.4569271,4.15287679 45.5237194,4.47824025 C45.5905117,4.80252634 45.7424103,5.05678388 46.1151545,5.09880101 C46.4986716,5.14189551 46.6990485,4.91888148 46.7916958,4.59675011 C46.8929616,4.2444526 46.9511355,3.88030409 47.0265462,3.5215424 C47.0620969,3.35131913 47.0890293,3.17894114 47.1331984,3.0108726 C47.193527,2.77708495 47.2904835,2.52821422 47.5791986,2.57454081 C47.8345176,2.61548058 48.0381264,2.94084404 48.0370491,3.15954862 C48.0327399,3.77903202 47.9207012,4.35757565 47.9282423,4.97813642 C47.9314742,5.27656581 47.7741891,5.66226157 48.1501651,5.73659958 C48.5239865,5.81093759 48.7017402,5.43493809 48.8450205,5.13974078 C49.2306921,4.34356994 49.328726,3.47306109 49.4590787,2.61332586 C49.47847,2.48511973 49.4375328,2.33644371 49.6099001,2.20608285 C50.3273786,2.14251847 50.2573545,2.59070125 50.3640067,2.79647747 C50.8240117,3.68853358 50.5482242,4.57628023 50.5212918,5.5523706 C50.5126734,5.86696043 50.8660262,5.91005493 51.1148814,5.70966552 C52.087679,4.92857775 53.1509693,4.53318573 54.2907476,4.03328956 C54.4275641,3.97295726 55.0179219,3.81458498 55.2560041,4.10116339 C55.3680428,4.35649829 55.1288833,4.4308363 55.0082262,4.54395935 C54.3715448,5.14081815 53.7262449,5.72798068 53.1994476,6.4271889 C53.0195393,6.66636337 52.7868435,6.8947642 52.8460948,7.28692413 C53.1919065,7.32139973 53.4289115,7.10592724 53.6626845,6.93031716 C54.4060182,6.37224342 55.1310379,5.7904677 55.8711397,5.2280845 C56.1480045,5.01799883 56.4442607,4.82407359 56.7911497,4.74865822 C56.981831,4.70664108 57.1886717,4.69694482 57.302865,4.91026258 C57.405208,5.10095574 57.2813191,5.24855439 57.1692804,5.37783788 C56.7459034,5.86265098 56.2051012,6.2149485 55.7257048,6.63619722 C55.4553037,6.87321695 55.1342698,7.07360637 54.9996079,7.45283795 C55.3475742,7.74588053 55.6879995,7.54764584 56.0058016,7.47761728 C56.5896955,7.34833379 57.1628166,7.16841426 57.744556,7.0240477 C57.9837155,6.96479276 58.3004403,6.85382443 58.4318703,7.1242424 C58.5826916,7.43344542 58.2541166,7.59504979 58.0558943,7.75342207 C57.6820729,8.05185147 56.7545217,8.35459031 56.7803768,8.68965003 C56.7986908,9.0807326 58.1129909,8.51188523 58.7130444,8.47094546 C59.0663972,8.44724348 59.5360979,8.36967339 59.6567549,8.82001089 C59.777412,9.26927103 59.3712717,9.50198131 59.0373102,9.69698392 C58.6699525,9.91030168 58.2767398,10.0783702 57.9039957,10.2819917 C57.686382,10.4005016 57.4008988,10.5319398 57.4903143,10.8346787 C57.5775752,11.1309533 57.8964546,11.1029419 58.1366914,11.0932456 C58.8757159,11.0652342 59.587808,10.8788505 60.2988229,10.6849253 C60.4884268,10.6332119 60.6801854,10.4608339 60.9850599,10.6709196 C61.7370119,11.8172332 58.8800251,13.2134949 59.3389529,13.4074202 C59.9907164,13.1844061 60.5369051,12.9635468 61.1014078,12.8148708 C61.5150891,12.7060572 62.018186,12.4625733 62.3543021,12.8816673 C62.704423,13.3179991 62.3952393,13.1607042 62.1733165,13.5905718 C61.7941086,14.3231782 59.4919288,14.3824332 59.8872961,15.4802655 C60.0262672,15.8670386 62.4975823,14.1971268 62.5385196,14.7185703 C63.3615731,15.6935833 60.4356394,16.5166882 60.8622482,17.1566415 C61.0712435,17.4701539 61.142345,17.4884691 61.3707316,17.2902344 C62.0935966,16.6621321 62.8595535,16.114832 63.8000322,15.8594971 C63.8183462,15.8541103 63.835583,15.8411819 63.853897,15.8379498 C64.2050952,15.7711534 64.6155447,15.5362884 64.8870231,15.879967 C65.1585014,16.2214909 64.879482,16.5867167 64.689878,16.8926877 C64.3839262,17.3861197 64.0855154,17.8935574 63.7073848,18.3288118 C62.2174856,20.0439728 61.1682001,21.816234 60.8708666,24.0334459 C60.7405139,25.0095363 60.653253,25.7065898 60.4711901,27.0877685 C60.3623833,28.5788381 60.2363397,29.601255 60.2589629,30.8305256 C60.3128277,33.6790719 60.2794316,36.5254635 60.1878615,39.3729324 C60.1803204,39.6207257 60.1867842,39.8695965 60.1867842,40.1260087 C62.1797803,40.6151313 62.9188048,42.1083556 63.175201,43.8849263 C63.6599838,47.2409103 63.1040995,50.474075 61.8372004,53.6124318 C62.9285004,54.6585507 62.9134183,55.9459988 62.007413,56.8068114 C61.142345,57.628839 59.9767116,57.4898592 58.9080348,56.4405082 C58.6160878,57.5167933 58.3553824,58.5812274 58.0375803,59.629501 C56.9602851,63.1837197 55.4940863,66.5634057 53.4687714,69.6877568 C53.3157955,69.9247765 53.2414621,70.1628736 53.2500805,70.449452 C53.2877858,71.7465964 53.3190274,73.0448182 53.3276457,74.3419625 C53.3298003,74.7308904 53.4019791,74.9506723 53.8555204,74.9786837 C54.2756655,75.0045404 54.6893468,75.137056 55.1665886,75.235096 C55.2333809,76.0797482 55.0383905,76.9103946 54.9080378,77.737809 C53.5528004,86.3804105 50.1593206,94.1201823 44.6037093,100.895715 C43.9034675,101.750063 43.1569019,102.563472 42.3844813,103.353178 C42.1388579,103.603126 41.8749206,103.736719 41.5247997,103.763653 C37.8102859,104.045922 34.0979267,104.143962 30.3887994,103.666691 C30.0171325,103.619287 29.7467314,103.471688 29.5000308,103.194806 C24.2492941,97.3005562 20.6500509,90.5379521 18.7830984,82.8617447 C18.2293686,80.5842005 17.8070689,78.2840317 17.5819142,75.9472326 C17.5420543,75.5313707 17.6314698,75.371921 18.0451512,75.2814226 C18.8919052,75.0971936 18.8843641,75.0713369 18.8746684,74.197596 C18.8595863,72.7830191 18.8434269,71.3695196 18.8369631,69.9549427 C18.8358858,69.6371208 18.7669389,69.3580839 18.595649,69.079047 C16.2654595,65.2845765 14.6915312,61.1830577 13.6756419,56.8596022 C13.5948448,56.5137688 13.4838833,56.3079926 13.0960571,56.1862507 C11.997216,55.8414947 11.3045152,55.0043841 10.7626357,54.0358352 C9.98698318,52.6503471 9.58084289,51.1388076 9.31582828,49.5874057 C8.96139816,47.5145604 8.7739488,45.4320188 9.25873163,43.3570187 C9.61531634,41.8293188 10.3306403,40.5655726 12.0230711,40.1841863 C12.3408732,40.112003 12.2654625,39.8792927 12.2622306,39.6821354 C12.2406847,38.5778389 12.2019021,37.4746198 12.1846654,36.3703233 C12.1448054,33.8902349 12.2277572,31.4123013 12.2493031,28.9332903 C12.2665398,26.9412472 12.0047571,24.8694792 10.7647903,23.2555903 C10.5784182,22.8515793 10.1787417,22.6479578 9.84370292,22.3883135 C9.29212779,21.9627553 8.73301158,21.5479708 8.18574563,21.1170258 C8.06939775,21.02545 7.94443151,20.8864702 8.02630594,20.7173243 C8.1038712,20.5578747 8.27623843,20.5406369 8.43352352,20.5632615 C8.89245127,20.6311353 9.34814713,20.7227111 9.80815218,20.7776566 C10.0322296,20.8045907 10.3004761,20.8476852 10.4459109,20.6117428 C10.6085825,20.347789 10.4092829,20.1269297 10.2778529,19.9254629 C10.0085291,19.5149879 9.65625356,19.1863923 9.20809876,18.9698425 C9.00125809,18.8707251 8.73624347,18.7888456 8.81057684,18.4861067 C8.87413725,18.2296945 9.11868326,18.1521244 9.35137902,18.1111846 C10.0236112,17.9915974 10.66137,18.1338092 11.2732736,18.4053045 C11.6223173,18.5572126 11.9573561,18.7414416 12.2988586,18.9116649 Z M57.321179,40.1917278 C57.2985558,40.3533322 57.2770099,40.4858478 57.2608504,40.6183634 C56.9419711,43.2341994 56.4862752,45.8198692 55.6470623,48.3290464 C55.3012505,49.3633143 54.6516415,50.1034623 53.7294768,50.6367567 C53.1908292,50.9481145 52.6198628,51.1851342 52.0230413,51.3575122 C49.3017936,52.1439868 46.5245266,52.1903134 43.7300229,51.9554483 C41.8803071,51.7992308 40.4905963,50.8888595 39.5447311,49.2954405 C39.2172334,48.7438309 38.9866922,48.1502042 38.7766197,47.5458039 C38.3446243,46.303605 38.1162377,44.9989191 37.628223,43.7750353 C37.3815224,43.1544746 36.9796913,42.7526184 36.2503625,42.7202975 C35.4919467,42.6868993 34.9813087,43.0036438 34.6818207,43.6737633 C34.5083762,44.0605364 34.361864,44.4613152 34.2336659,44.8653261 C33.8652309,46.0256455 33.6045255,47.2182857 33.0949649,48.3344332 C32.3936457,49.870752 31.2506355,50.881318 29.6293063,51.3650537 C28.526156,51.6936493 27.3982279,51.8477121 26.2530632,51.8746462 C24.0058254,51.9263596 21.8135297,51.6419359 19.7181906,50.7778912 C18.5223929,50.2855366 17.6293152,49.5044488 17.088513,48.2978029 C16.5003099,46.9877301 16.0198362,45.6453365 15.6406283,44.2630805 C15.2624977,42.8829792 15.008256,41.4780986 14.8423526,40.0753727 C14.6096568,39.9945705 14.4265166,39.9579402 14.2616905,40.0861463 C14.2616905,41.7237372 14.2584586,43.3494772 14.2627678,44.9752171 C14.2713861,48.6263984 14.6215071,52.2431041 15.4197828,55.8091738 C16.5692568,60.9395738 18.4599098,65.7564612 21.5711383,70.0368222 C23.8970186,73.237666 26.7206093,75.8588889 30.4028042,77.4533853 C30.7938624,77.6225312 31.1633746,77.6613162 31.5824424,77.5568121 C34.3995693,76.8597586 37.2802567,76.6205841 40.1049246,77.2271392 C41.7984327,77.5912877 43.058868,77.0773858 44.3677817,76.2532035 C45.4192218,75.5906256 46.4114106,74.8526323 47.332498,74.0198312 C48.2686675,73.1741016 49.1111124,72.2411058 49.9352432,71.28764 C50.7281325,70.3686498 51.3583501,69.3354593 52.0198094,68.3313575 C53.6335976,65.8803579 54.788458,63.1988028 55.7537145,60.4299813 C58.0300392,53.8990102 58.317677,47.1277872 58.2164113,40.308083 C58.2164113,40.2736074 58.1873243,40.2402092 58.1647011,40.1895731 C57.9104594,40.0904558 57.6475994,40.1303182 57.321179,40.1917278 Z M14.840198,35.6614188 C16.2385271,35.4524105 17.5948418,35.4814992 18.9414607,35.3683762 C23.8356128,34.9568237 28.6468131,35.4782672 33.38368,36.7118472 C34.5062216,37.0038124 35.6179902,37.124477 36.7685415,37.0846146 C37.9901942,37.0425974 39.0987309,36.5523975 40.2622097,36.2873664 C43.7688056,35.4890408 47.3314207,35.115196 50.9263548,35.2864966 C53.1563558,35.3920782 55.4025163,35.4405595 57.6335946,36.0837449 C57.8048845,34.2220626 57.8447444,32.4454919 56.6295555,30.8951673 C56.1156857,30.2390536 55.6212072,29.5689342 54.9866803,29.0194793 C54.8477092,28.8988147 54.7550619,28.7695312 54.7572164,28.5766834 C54.7626029,28.0186096 54.759371,27.4616132 54.759371,26.8636771 C55.6912314,27.1556423 56.4668839,27.7395727 57.3416476,28.1672856 C57.423522,27.6404554 57.4472225,26.6115743 57.3631935,26.5253853 C57.3416476,26.5027607 57.3093287,26.4930644 57.2813191,26.476904 C56.5756907,26.0610421 55.8506711,25.7055124 55.1019509,25.3930773 C54.938202,25.3252035 54.6979652,25.3187393 54.6979652,25.047244 C54.6979652,24.4730098 54.6979652,23.899853 54.6979652,23.2652865 C55.6621444,23.6121972 56.4679612,24.1444143 57.3405703,24.6259953 C57.4095172,24.0636121 57.4213674,23.2803696 57.339493,22.9647024 C57.302865,22.9463872 57.2640823,22.9313042 57.2306862,22.9097569 C55.2904776,21.6330824 53.4903173,20.9284874 51.5188671,20.0515143 C48.5929334,18.7489832 45.4623136,18.1995283 42.2939885,17.8741649 C38.9134362,17.5272541 35.5253428,17.5229447 32.139404,17.767506 C28.5186149,18.029305 24.9473814,18.5949203 21.5215827,19.8446608 C19.3023546,20.6548373 17.2705759,21.3163379 15.0858213,22.7783187 C15.055657,22.7987886 15.0567343,22.8882097 15.0513478,22.9237626 C15.0233382,23.1295388 15.0201063,23.9688042 15.0976715,24.4449984 C16.1415706,23.8718416 16.7857931,23.3978021 17.9654313,23.0605876 C17.9654313,23.5960368 17.9374216,24.0614574 17.9740497,24.5214911 C18.0052912,24.9168831 17.8652429,25.0871064 17.4871123,25.2185446 C16.6629814,25.505123 15.876556,25.8703489 15.1149083,26.304526 C15.0696619,26.3303827 15.0136425,26.3680903 15.0061014,26.4338095 C14.960855,26.8259694 15.000715,28.0520078 15.0922851,28.0002944 C16.0295319,27.4691548 16.9161458,26.9293962 17.9514265,26.6148063 C17.9514265,27.1911953 17.9331125,27.6954009 17.9578902,28.1974518 C17.9729724,28.5098869 17.851238,28.688729 17.5937645,28.8514108 C16.9032183,29.2866652 16.2697687,29.797335 15.7289665,30.412509 C15.3562224,30.8369898 14.9953285,31.2851725 14.9317681,31.8669483 C14.792797,33.1188434 14.8617439,34.3739707 14.840198,35.6614188 Z M20.7954858,72.3811629 C20.7879447,72.482435 20.7750172,72.5729334 20.7760944,72.6634319 C20.8084133,75.4527232 20.9290704,78.2398599 20.9926308,81.0280739 C21.0346453,82.8423522 21.7402736,84.3107972 22.8121823,85.6812022 C24.5121541,87.8542423 26.708759,89.3269967 29.3104269,90.1684168 C34.5363858,91.8577211 39.6977071,91.4397045 44.7749993,89.5187673 C46.7475267,88.7721551 48.5573827,87.7400419 49.9869534,86.1380039 C50.8003112,85.2265553 51.2700119,84.1750495 51.3271086,82.9393148 C51.4768526,79.7061501 51.4833164,76.4719081 51.379896,73.237666 C51.3745096,73.0825258 51.445611,72.8918327 51.2635482,72.7647039 C51.211838,72.8056437 51.1622824,72.8347325 51.1267317,72.8756723 C49.1595907,75.1801505 46.9123529,77.1431049 44.2148058,78.5598365 C44.0736801,78.6341745 43.9648733,78.7322145 43.8937718,78.8808905 C43.230158,80.279307 42.0462106,81.0399248 40.6263355,81.4644056 C38.2508996,82.1743875 35.8409903,82.0935853 33.4407766,81.6227779 C31.9487228,81.3297353 30.5751714,80.7738163 29.7348812,79.3753999 C29.63577,79.2116408 29.4709439,79.1566953 29.3136588,79.0855894 C26.106551,77.639769 23.489801,75.4397949 21.2371768,72.7711681 C21.1208289,72.6321883 21.0529593,72.4307216 20.7954858,72.3811629 Z M13.0734339,53.8677667 C12.3505688,49.9310843 12.3247137,46.0590437 12.2945495,42.1589917 C11.639554,42.4337191 11.2829693,42.9153001 11.1224523,43.8913905 C10.6161236,46.9715697 11.0815151,49.9343164 12.2999359,52.7893269 C12.4561437,53.1534754 12.6479023,53.5143918 13.0734339,53.8677667 Z M60.1490788,42.1158972 C60.145847,46.0224134 60.087673,49.7985687 59.4122089,53.6803056 C59.7655618,53.3624837 59.9034555,53.0845242 60.0230353,52.8119515 C61.2220648,50.0776056 61.6443646,47.2204404 61.2856253,44.2620031 C61.1919006,43.4852248 60.992601,42.700905 60.1490788,42.1158972 Z M16.2018991,38.8342512 C16.712537,38.8428701 17.1380686,38.4345497 17.1391459,37.9346535 C17.1402232,37.4552272 16.7513196,37.0522937 16.2654595,37.0307464 C15.7483578,37.0081218 15.3228262,37.3916629 15.3034349,37.8991006 C15.2851209,38.4054609 15.6880293,38.8256323 16.2018991,38.8342512 Z M55.0836369,37.927112 C55.080405,38.4280855 55.5005501,38.8385606 56.0133426,38.8342512 C56.5056665,38.8299417 56.8967247,38.4539422 56.9139614,37.965897 C56.9322754,37.4519952 56.54014,37.0404427 56.0230383,37.0318238 C55.5070139,37.0221275 55.0857915,37.4239837 55.0836369,37.927112 Z M60.2686586,55.6949734 C60.5455235,55.964314 60.8116154,55.9416894 61.040002,55.7100565 C61.2673112,55.4805783 61.2942436,55.2155471 61.0259971,54.9494386 C60.7717555,55.200464 60.5229003,55.4439479 60.2686586,55.6949734 Z"></path>
                <path d="M53.9724138,98.0985364 C54.8494008,98.1761828 55.5101003,97.9198434 55.8953289,97.1954986 C56.28809,96.4573264 56.1309856,95.7563819 55.5595989,95.0618193 C56.3408168,95.0192733 56.9703106,94.7735705 57.3189533,94.0992172 C57.6697481,93.4206093 57.5685987,92.7685926 57.0972854,92.1229578 C57.7665933,91.874064 58.320763,91.5336964 58.5284422,90.8199881 C58.7404255,90.0924523 58.4767914,89.5127638 57.9968697,88.9894486 C59.3376376,88.0247192 59.4721448,87.1323179 58.4520421,85.8516848 C59.1708486,85.6517189 59.6981169,85.2368958 59.868134,84.5072328 C60.0338469,83.7956518 59.7852776,83.1904357 59.1923698,82.6575477 C59.9187087,82.4001447 60.4179995,81.9619214 60.5557349,81.2311947 C60.6977745,80.4760041 60.3695769,79.8941882 59.7852776,79.4272464 C61.0378088,78.7177927 61.2164343,78.3859343 61.1077525,77 C63.316899,77.3446222 71.4970898,81.0354833 74,82.8298587 C73.8009293,83.3085007 72.7819027,84.7029442 72.6667645,84.8975919 C70.3392517,88.8267103 67.6770849,92.4952349 64.2369283,95.5659888 C60.91191,98.5346324 57.0876009,100.625766 52.8113475,101.923417 C52.7048178,101.955327 52.5929078,101.972345 52.4637809,102 C52.3131328,101.624532 52.3454145,101.221409 52,100.845941 C52.8511617,100.920397 53.5011005,100.75234 53.939056,100.126915 C54.3813157,99.4951072 54.3318171,98.8324541 53.9724138,98.0985364 Z"></path>
                <path d="M18.3855972,95.5007029 C17.2252297,97.0997189 18.3342439,98.7174047 20.0496648,98.6251538 C19.7196921,99.3159374 19.6475788,99.9968371 20.0879066,100.645888 C20.5326049,101.300431 21.1750683,101.507995 22,101.419039 C21.895108,101.645273 21.8109759,101.824284 21.7290291,102 C12.8580084,99.2489457 2.66709709,91.8732648 0,82.6690388 C1.92301962,81.3654454 10.8333747,77.4140309 12.8066551,77 C12.6831885,78.0982253 13.0896449,78.8845546 14.2084927,79.2645405 C13.6173827,79.7587419 13.278669,80.3408013 13.392302,81.1117554 C13.5081202,81.8958882 14.0041718,82.3516517 14.7121927,82.616324 C13.6239384,84.1670181 13.896002,85.3234493 15.5163645,85.9450448 C15.1022597,86.4568178 14.7449714,86.9916535 14.8640675,87.6868301 C14.9809784,88.3600422 15.3721381,88.8256897 15.9741743,89.1211123 C14.9809784,90.7245212 15.2071517,91.5591724 16.8570151,92.4245739 C16.0375466,94.0246881 16.5270425,95.0097962 18.3855972,95.5007029 Z"></path>
                <path d="M44,104 C47.5883974,100.026846 50.4599724,95.7358389 52.5750804,90.954094 C54.678402,86.2013423 55.9577529,81.2187919 56.5417113,76 C57.0335221,76.1148993 57.456758,76.2136913 57.8960661,76.3167785 C56.9328027,77.5860403 56.9520894,78.2840268 58,79.3685906 C57.3217511,79.6026846 56.8277973,80.0139597 56.6756467,80.7302013 C56.5256391,81.4357047 56.7581509,82.0209396 57.3431808,82.5771812 C56.6467167,82.8295302 56.1431195,83.2526174 56.0027552,83.9667114 C55.8656054,84.6657718 56.0874024,85.261745 56.6670749,85.7621477 C55.9695393,85.994094 55.4295117,86.357047 55.2366447,87.0722148 C55.0491352,87.7691275 55.248431,88.3651007 55.7756008,88.9084564 C55.2998622,89.2467114 54.8434104,89.5849664 54.7030461,90.1927517 C54.5669677,90.7822819 54.7191183,91.2966443 55.0480637,91.7766443 C53.427981,92.6851007 53.1901117,93.4453691 54.0826573,94.9390604 C53.3851217,94.9616107 52.8043778,95.1989262 52.4315016,95.8045638 C52.0521965,96.4209396 52.1186285,97.052349 52.436859,97.7288591 C51.6653911,97.7041611 51.0278586,97.9006711 50.6121231,98.5471141 C50.1942446,99.1967785 50.2692484,99.8604027 50.6153375,100.521879 C48.8281035,100.641074 48.155212,101.579597 48.6738099,103.262282 C47.1608756,103.608054 45.631869,103.816376 44,104 Z"></path>
                <path d="M18.8642066,95.1294255 C19.716683,93.6560857 19.4074617,92.6331451 17.9037146,91.9799026 C18.1832845,91.4684323 18.3993157,90.9329698 18.2404692,90.3288023 C18.0869176,89.746446 17.7141577,89.351665 17.1994949,89.0877507 C18.2563539,87.6733009 17.7882861,86.3929893 16.3766699,85.8302629 C17.3911698,84.4179942 17.1529,83.2892697 15.6491528,82.6044012 C16.1267514,82.0863875 16.4613881,81.5062123 16.3078364,80.7711782 C16.1532258,80.033963 15.688335,79.5802921 15,79.3512756 C15.9943793,78.1178578 16.0335614,77.6227459 15.2096774,76.3533398 C15.6142066,76.237741 16.006028,76.1265044 16.4497393,76 C17.4822418,86.5467575 21.2140762,95.8808179 28,104 C26.6911046,103.786251 25.5304659,103.524518 24.3867709,103.211529 C24.3952428,101.506991 23.7598566,100.794859 22.2698762,100.87556 C22.5822744,100.181967 22.7019387,99.4916456 22.2825839,98.8198637 C21.8695829,98.1600779 21.2447866,97.9408763 20.5056207,97.9844985 C21.0287553,96.3050438 20.4886771,95.3628043 18.8642066,95.1294255 Z"></path>
                <path d="M60.0206486,78.9995791 C59.4640946,79.015687 58.993269,78.5673512 59.0000728,78.0076026 C59.0068767,77.4075844 59.3538724,77.0760306 59.9321987,77.0062298 C60.4792273,76.940456 60.9745468,77.4048997 60.9990406,77.955252 C61.0235344,78.5056044 60.5758418,78.9834713 60.0206486,78.9995791 Z"></path>
                <path d="M15.9993775,78.0399213 C15.9792473,78.5813314 15.4894115,79.0257725 14.943211,78.9988367 C14.3916425,78.9705541 13.9635394,78.487056 14.0024578,77.9348715 C14.0386923,77.4190505 14.5016878,76.989424 15.0129958,77.0001983 C15.5484602,77.0096259 16.0195078,77.5065919 15.9993775,78.0399213 Z"></path>
                <path d="M58.0256204,84.9997587 C57.4712008,85.0119408 57.0040386,84.5612029 57.0000113,84.0103011 C56.9973265,83.4634599 57.4725432,82.9653471 58.0121962,83.0018934 C58.5894369,83.0411469 58.9438358,83.3727709 58.9961902,83.9615726 C59.0472021,84.5084138 58.5786975,84.9875766 58.0256204,84.9997587 Z"></path>
                <path d="M17.9993596,91.0263946 C17.9778667,91.5741295 17.4835307,92.0296714 16.9435223,91.9984884 C16.3954541,91.9673055 15.9427605,91.4710902 16.0058958,90.9219996 C16.0744043,90.3390144 16.4142603,90.0068485 17.0106875,90.0000696 C17.5614423,89.9932907 18.0195092,90.4827271 17.9993596,91.0263946 Z"></path>
                <path d="M57.9995849,86.9692404 C58.0157422,87.5127521 57.5579535,87.9931896 57.0139927,87.9998997 C56.4740713,88.0079517 55.9691573,87.5301982 56.0014718,86.9947384 C56.0364791,86.4163346 56.3717421,86.0633875 56.953403,86.0043393 C57.4892851,85.9493171 57.9820813,86.4257286 57.9995849,86.9692404 Z"></path>
                <path d="M15.9994454,80.9675091 C16.0183046,81.5141648 15.5535598,82.0185604 15.0039486,81.9994752 C14.4233544,81.9790267 14.0596411,81.6668467 14.0044105,81.0642985 C13.9518742,80.4903781 14.3748593,80.0268795 14.9433297,80.0009781 C15.4996764,79.9764399 15.9805862,80.4167636 15.9994454,80.9675091 Z"></path>
                <path d="M59.9999883,80.9945642 C60.0026942,81.548553 59.5359338,82.0054229 58.9771744,81.9999514 C58.4021798,81.993112 57.9692427,81.548553 58.001713,80.9685746 C58.0355362,80.3639744 58.3778271,80.0343169 58.9677039,80.0014879 C59.5251104,79.9700268 59.9972824,80.4419432 59.9999883,80.9945642 Z"></path>
                <path d="M56.999997,93.0039975 C56.999997,93.5817752 56.564994,94.0080046 55.9854446,93.999886 C55.4154407,93.9904142 54.9640739,93.5344164 55.002256,92.9715229 C55.0418017,92.3761548 55.4004406,92.0473492 55.9840809,92.0026966 C56.5349938,91.9593971 57.0013607,92.4438103 56.999997,93.0039975 Z"></path>
                <path d="M18.0008466,93.0000124 C18.5676896,92.9972783 19.0079691,93.4470424 18.9998906,94.0184753 C18.9918121,94.5912752 18.5448005,95.0273687 17.969879,94.9986603 C17.3666826,94.9685849 17.0529667,94.5994775 17.0031491,94.0225764 C16.9560244,93.4730166 17.444775,93.0013795 18.0008466,93.0000124 Z"></path>
                <path d="M16.894801,88.9944022 C16.3315,88.9378842 15.9404706,88.4467165 16.0074652,87.8828827 C16.070358,87.3607647 16.5516249,86.9624478 17.0711744,87.0028177 C17.631741,87.045879 18.0405444,87.5276271 17.9967929,88.0928065 C17.9516741,88.6552946 17.46904,89.0522658 16.894801,88.9944022 Z"></path>
                <path d="M57.9993582,90.0329644 C57.9789624,90.6077437 57.5030617,91.0347225 56.9238225,90.9977724 C56.3744971,90.9621909 55.9828988,90.5256323 56.0005751,89.9645383 C56.0182514,89.3760739 56.4737564,88.9641488 57.065233,89.0024674 C57.611839,89.0353119 58.0183942,89.4855556 57.9993582,90.0329644 Z"></path>
                <path d="M16.0348123,84.9993853 C15.443686,85.0184986 15,84.5898144 15,84.0027627 C15,83.4484767 15.4122867,83.0197925 15.9624573,83.0006792 C16.5399317,82.9802006 17,83.4252677 17,84.004128 C17,84.5570487 16.5877133,84.9816372 16.0348123,84.9993853 Z"></path>
                <path d="M45.7001809,67.7485736 C44.6183248,67.739575 43.496158,67.4201247 42.3522015,67.2738975 C41.8477711,67.2097824 41.3444302,67.1310447 40.8378209,67.0883013 C40.1285679,67.0275608 39.4705205,67.1321695 38.7983099,67.4651177 C37.4484412,68.1332638 35.9852663,68.1917547 34.6419346,67.5483548 C33.4663831,66.9848174 32.3409477,67.0826772 31.1555909,67.270523 C29.9201179,67.4662426 28.6966291,67.7800687 27.4306506,67.6900827 C26.4817114,67.6225932 25.5698147,67.4234992 24.7592398,66.8790839 C23.8026742,66.235684 23.7471106,65.2447131 24.6088912,64.4618349 C24.9978364,64.1086398 25.4477926,63.8668025 25.9293438,63.6924546 C26.8041982,63.3741291 27.5886255,62.8960785 28.3534422,62.3606618 C29.4047927,61.6227765 30.4855592,60.9332588 31.6534843,60.3978421 C32.8878679,59.8320551 34.1004618,59.8568012 35.2553131,60.5553176 C36.1116463,61.0738619 36.8394205,61.1244791 37.7556752,60.5733148 C39.0445329,59.7983103 40.4706654,59.9490369 41.8412342,60.4867033 C42.9906381,60.9377581 43.961367,61.6947653 44.9103061,62.4765187 C45.6021274,63.0456802 46.3146489,63.5642245 47.1513714,63.8915486 C47.6263857,64.0782696 48.076342,64.3347297 48.446766,64.7070468 C49.3303362,65.5934089 49.1331399,66.7913475 48.015331,67.3211401 C47.8039714,67.4212496 47.577359,67.495488 47.3507467,67.5562286 C46.836511,67.6912076 46.308112,67.7193282 45.7001809,67.7485736 Z M46.0204887,65.6597736 C44.7882841,65.1018603 43.8600451,64.1221377 42.7901734,63.3561319 C42.3892439,63.0693015 41.97633,62.7914697 41.5405371,62.5676296 C40.4074754,61.9838454 39.2722347,61.831994 38.1576942,62.6441177 C37.9180081,62.8184655 37.6325637,62.9028274 37.3427614,62.9736914 C36.3033952,63.2279019 35.3653509,62.9489452 34.4785122,62.4090292 C33.8324491,62.0153405 33.1918335,61.915231 32.4695067,62.2301821 C30.4844697,63.0940477 28.9101677,64.6823006 26.912057,65.5787862 C27.3848923,65.6642729 27.8490118,65.7103907 28.301147,65.6541494 C29.3110972,65.5292939 30.313421,65.3504467 31.3201027,65.1997201 C32.6492713,65.0017509 33.93595,64.9511338 35.2128233,65.618155 C36.192268,66.1299504 37.2686766,66.0523375 38.2666425,65.5034229 C38.6523193,65.290831 39.0532488,65.1614761 39.4857733,65.0996107 C40.65043,64.9320118 41.7867601,65.1626009 42.9307166,65.3167019 C43.9548301,65.4494313 44.9571539,65.7643823 46.0204887,65.6597736 Z"></path>
                <path d="M46,70.4279354 C44.8360755,71.5344352 43.3607549,72.2163595 41.6469877,72.4636947 C41.3464796,72.5067531 41.0917009,72.6008807 40.8423663,72.753087 C38.0637551,74.4473835 35.5529881,74.4163414 32.849504,72.6519499 C32.6143237,72.4977409 32.3584563,72.4406635 32.0938785,72.3855889 C30.3866441,72.0311084 28.9820953,71.2680742 28,70.1375418 C28.4681829,69.7710451 28.9385434,69.403547 29.4557222,69 C30.3855553,69.9522907 31.5462134,70.4910209 32.8930559,70.7003046 C33.6465038,70.8174634 34.4053956,70.8795476 35.1708202,70.8575177 C36.6374304,70.8164621 38.1018631,70.7493711 39.5706509,70.7864213 C41.494556,70.8354878 43.2649407,70.4599789 44.6792887,69.1011371 C45.1311396,69.5567546 45.5601258,69.9863369 46,70.4279354 Z"></path>
                <path d="M30.53078,56.3402531 C30.3397426,55.6414296 30.1790975,55.0572396 30,54.4025058 C31.85176,53.9737324 33.5873779,53.9913683 35.2177082,55.0010251 C35.6659947,55.2787909 36.0990851,55.5786016 36.5853621,55.791335 C37.2626764,56.0867367 37.9095984,56.0602828 38.5391534,55.6678835 C39.0873004,55.3272897 39.6213366,54.9624465 40.1846798,54.6494088 C41.3797488,53.9847548 42.6399442,53.8172135 44,54.2074084 C43.9359591,54.8478129 43.7286401,55.436412 43.5614824,56.1264176 C42.1113351,55.6590655 40.9987595,56.3898542 39.8905257,57.1559147 C38.5000775,58.1181749 36.9978291,58.3099656 35.5346565,57.4590322 C33.9661963,56.5452708 32.4411537,55.6623723 30.53078,56.3402531 Z"></path>
            </g>
        </g>
    </g>
</svg>